<svg xmlns="http://www.w3.org/2000/svg" width="800" height="800" viewBox="0 0 24 24" role="img">
  <path d="M 0,0 H 24 V 24 H 0 Z" fill="#000000"/>
  <path d="M 4.1729355,9.129028 C 4.5082331,9.4224134 5.0111795,9.338589 5.2626527,9.0032914 L 5.3674332,8.8985109 V 18.3078 c 0,0.419122 0.3352976,0.75442 0.7334635,0.75442 h 0.6077269 c 0.419122,0 0.7544196,-0.335298 0.7544196,-0.75442 V 5.6922275 c 0,-0.419122 -0.3352976,-0.7544196 -0.7544196,-0.7544196 H 6.1218528 c -0.1676488,0 -0.5029464,0.1676488 -0.5867708,0.2933854 L 3.6071208,7.7249693 C 3.3556476,8.0602669 3.439472,8.5422572 3.7747696,8.7727743 Z m 5.1132774,0 C 9.6215105,9.4224134 10.124457,9.338589 10.37593,9.0032914 L 10.480711,8.8985109 V 18.3078 c 0,0.419122 0.335297,0.75442 0.733463,0.75442 h 0.607727 c 0.419122,0 0.75442,-0.335298 0.75442,-0.75442 V 5.6922275 c 0,-0.419122 -0.335298,-0.7544196 -0.75442,-0.7544196 H 11.23513 c -0.167649,0 -0.502946,0.1676488 -0.586771,0.2933854 L 8.7203982,7.7249693 C 8.468925,8.0602669 8.5527494,8.5422572 8.888047,8.7727743 Z m 4.4845941,5.825796 c 0,1.655532 0.461035,2.619512 1.110674,3.269152 0.691551,0.670595 1.550751,0.838244 2.347083,0.838244 0.75442,0 1.634576,-0.167649 2.326127,-0.838244 0.649639,-0.64964 1.089717,-1.61362 1.089717,-3.269152 v -0.293385 c 0,-0.419122 -0.335297,-0.75442 -0.733463,-0.75442 h -0.607727 c -0.419122,0 -0.75442,0.335298 -0.75442,0.75442 v 0.293385 c 0,0.75442 -0.10478,1.320234 -0.356253,1.655532 -0.188605,0.209561 -0.565815,0.37721 -0.963981,0.37721 -0.901112,0 -1.341191,-0.628683 -1.341191,-2.032742 V 9.0242475 c 0,-1.4040587 0.461035,-2.0117856 1.341191,-2.0117856 0.8592,0 1.320234,0.6077269 1.320234,2.0117856 v 0.2933854 c 0,0.419122 0.335298,0.7544201 0.75442,0.7544201 h 0.607727 c 0.398166,0 0.733463,-0.3352981 0.733463,-0.7544201 V 9.0242475 c 0,-1.5926636 -0.440078,-2.6404687 -1.110673,-3.2691517 -0.691551,-0.628683 -1.529795,-0.8172879 -2.305171,-0.8172879 -0.796332,0 -1.634576,0.1886049 -2.326127,0.8172879 -0.670595,0.628683 -1.13163,1.6764881 -1.13163,3.2691517 z" fill="#ffffff" aria-label="11c"/>
</svg>
